<svg xmlns="http://www.w3.org/2000/svg" viewBox="0 0 936.54 312.22"><defs><style>.cls-1{fill:#e0471e;}.cls-2{fill:#dccfbb;}</style></defs><g id="Camada_2" data-name="Camada 2"><g id="Camada_1-2" data-name="Camada 1"><path class="cls-1" d="M30.92,283,43,290.65c.79.5.23,1.34-.88,1.34H30c-.68,0-1.24-.35-1.24-.79v-7.68c0-.69,1.33-1,2.12-.55"/><path class="cls-1" d="M41.67,48.41v8.18a1.89,1.89,0,0,0,1,1.53L64.86,72.2a1.88,1.88,0,0,1,1,1.53v5.45c0,1.92-3.65,2.88-5.8,1.52l-12.59-8c-2.14-1.36-5.8-.4-5.8,1.52v8.16a1.89,1.89,0,0,0,1,1.53L64.91,98a1.88,1.88,0,0,1,1,1.53V105c0,1.92-3.65,2.88-5.8,1.52L29.79,87.3a1.88,1.88,0,0,1-1-1.53v-53c0-1.19,1.52-2.16,3.4-2.16h6.35a4.64,4.64,0,0,1,2.41.63l.72.46L64.91,46.4a1.88,1.88,0,0,1,1,1.53v5.45c0,1.92-3.65,2.88-5.8,1.52l-12.65-8c-2.14-1.34-5.79-.38-5.79,1.54"/><path class="cls-1" d="M41.67,100v8.18a1.89,1.89,0,0,0,1,1.53l22.19,14.08a1.88,1.88,0,0,1,1,1.53v5.45c0,1.92-3.65,2.88-5.8,1.52l-12.59-8c-2.14-1.36-5.8-.4-5.8,1.52V134a1.89,1.89,0,0,0,1,1.53l22.24,14.12a1.88,1.88,0,0,1,1,1.53v5.45c0,1.92-3.65,2.88-5.8,1.52L29.79,138.92a1.88,1.88,0,0,1-1-1.53v-53c0-1.19,1.52-2.16,3.4-2.16h6.35a4.64,4.64,0,0,1,2.41.63l.72.46L64.91,98a1.88,1.88,0,0,1,1,1.53V105c0,1.92-3.65,2.88-5.8,1.52l-12.65-8c-2.14-1.34-5.79-.37-5.79,1.54"/><path class="cls-1" d="M41.67,151.65v8.18a1.89,1.89,0,0,0,1,1.53l22.19,14.08a1.88,1.88,0,0,1,1,1.53v5.45c0,1.92-3.65,2.88-5.8,1.52l-12.59-8c-2.14-1.36-5.8-.4-5.8,1.52v8.16a1.89,1.89,0,0,0,1,1.53l22.24,14.12a1.88,1.88,0,0,1,1,1.53v5.45c0,1.92-3.65,2.88-5.8,1.52L29.79,190.54a1.88,1.88,0,0,1-1-1.53V136c0-1.19,1.52-2.16,3.4-2.16h6.35a4.64,4.64,0,0,1,2.41.63l.72.46,23.24,14.75a1.88,1.88,0,0,1,1,1.53v5.45c0,1.92-3.65,2.88-5.8,1.52l-12.65-8c-2.14-1.34-5.79-.38-5.79,1.54"/><path class="cls-1" d="M41.67,203.28v8.18a1.89,1.89,0,0,0,1,1.53l22.19,14.08a1.88,1.88,0,0,1,1,1.53v5.45c0,1.92-3.65,2.88-5.8,1.52l-12.59-8c-2.14-1.36-5.8-.4-5.8,1.52v8.16a1.89,1.89,0,0,0,1,1.53l22.24,14.12a1.88,1.88,0,0,1,1,1.53v5.45c0,1.92-3.65,2.88-5.8,1.52L29.79,242.17a1.88,1.88,0,0,1-1-1.53v-53c0-1.19,1.52-2.16,3.4-2.16h6.35a4.64,4.64,0,0,1,2.41.63l.72.46,23.24,14.75a1.88,1.88,0,0,1,1,1.53v5.45c0,1.92-3.65,2.88-5.8,1.52l-12.65-8c-2.14-1.35-5.79-.38-5.79,1.54"/><path class="cls-1" d="M41.67,177.46v8.18a1.89,1.89,0,0,0,1,1.53l22.19,14.08a1.88,1.88,0,0,1,1,1.53v5.45c0,1.92-3.65,2.88-5.8,1.52l-12.59-8c-2.14-1.36-5.8-.4-5.8,1.52v8.16a1.89,1.89,0,0,0,1,1.53l22.24,14.12a1.88,1.88,0,0,1,1,1.53v5.45c0,1.92-3.65,2.88-5.8,1.52L29.79,216.35a1.88,1.88,0,0,1-1-1.53v-53c0-1.19,1.52-2.16,3.4-2.16h6.35a4.64,4.64,0,0,1,2.41.63l.72.46,23.24,14.75a1.88,1.88,0,0,1,1,1.53v5.45c0,1.92-3.65,2.88-5.8,1.52l-12.65-8c-2.14-1.34-5.79-.37-5.79,1.54"/><path class="cls-1" d="M41.67,229.09v8.18a1.89,1.89,0,0,0,1,1.53l22.19,14.08a1.88,1.88,0,0,1,1,1.53v5.45c0,1.92-3.65,2.88-5.8,1.52l-12.59-8c-2.14-1.36-5.8-.4-5.8,1.52v8.16a1.89,1.89,0,0,0,1,1.53l22.24,14.12a1.88,1.88,0,0,1,1,1.53v5.45c0,1.92-3.65,2.88-5.8,1.52L29.79,268a1.88,1.88,0,0,1-1-1.53v-53c0-1.19,1.52-2.16,3.4-2.16h6.35a4.64,4.64,0,0,1,2.41.63l.72.46,23.24,14.75a1.88,1.88,0,0,1,1,1.53v5.45c0,1.92-3.65,2.88-5.8,1.52l-12.65-8c-2.14-1.34-5.79-.38-5.79,1.54"/><path class="cls-1" d="M0,254.19V2.16C0,1,1.52,0,3.4,0H31.06a4.64,4.64,0,0,1,2.41.63L45,7.92a4.89,4.89,0,0,0,4.8,0L61.24.63A4.57,4.57,0,0,1,63.63,0H91.29c1.88,0,3.4,1,3.4,2.16V289.84c0,1.19-1.52,2.16-3.4,2.16H85.22c-1.88,0-3.4-1-3.4-2.16V10.32c0-1.19-1.52-2.16-3.4-2.16H69a4.54,4.54,0,0,0-2.39.63l-7.72,4.9a1.66,1.66,0,0,0,0,3l6.06,3.85a1.88,1.88,0,0,1,1,1.53v5.46c0,1.92-3.65,2.88-5.8,1.52l-32-20.3a4.57,4.57,0,0,0-2.39-.63H16.27c-1.88,0-3.4,1-3.4,2.16V254.2c0,1.19-1.52,2.16-3.4,2.16H3.39c-1.87,0-3.39-1-3.39-2.17"/><path class="cls-1" d="M123.47,2.18V308.1c0,1.19-1.52,2.16-3.4,2.16H3.4c-1.88,0-3.4-1-3.4-2.16V268.61c0-1.19,1.52-2.16,3.4-2.16H9.48c1.88,0,3.4,1,3.4,2.16v31.32c0,1.19,1.52,2.16,3.4,2.16h90.93c1.88,0,3.4-1,3.4-2.16V2.18C110.61,1,112.13,0,114,0h6.08c1.86,0,3.38,1,3.38,2.16"/><path class="cls-2" d="M164.73,93.06c-10.64,0-17.56-3.54-21.1-6a3.89,3.89,0,0,1-1.14-5.19l5-8.39a3.91,3.91,0,0,1,5.22-1.41A23.88,23.88,0,0,0,164.12,75c10.76,0,15.76-5.45,15.91-18.64V3.88A3.87,3.87,0,0,1,183.91,0h10.58a3.87,3.87,0,0,1,3.88,3.88V60c-.15,18.2-10.31,33.05-33.64,33.05"/><path class="cls-2" d="M295.22,85.61l-33-83.16A3.9,3.9,0,0,0,258.62,0h-14A3.91,3.91,0,0,0,241,2.45l-33,83.16a3.87,3.87,0,0,0,3.6,5.32H222.8a3.89,3.89,0,0,0,3.65-2.53l4.63-12.53a3.89,3.89,0,0,1,3.65-2.53h33.82a3.88,3.88,0,0,1,3.65,2.53l4.64,12.53a3.89,3.89,0,0,0,3.65,2.53h11.12a3.88,3.88,0,0,0,3.61-5.32m-35-27.12H243a3.89,3.89,0,0,1-3.64-5.24l8.54-23.12a3.87,3.87,0,0,1,7.27,0l8.64,23.13a3.88,3.88,0,0,1-3.64,5.24"/><path class="cls-2" d="M290.56,5.83A3.88,3.88,0,0,1,293.91,0h11a3.89,3.89,0,0,1,3.39,2l16.8,29.53a3,3,0,0,1,.18.36,3.87,3.87,0,0,0,3.57,2.35,3.82,3.82,0,0,0,3.55-2.33v0c0-.12.12-.21.18-.33L349.11,2a3.88,3.88,0,0,1,3.39-2h11.12A3.9,3.9,0,0,1,367,5.86l-28.5,48.86a3.85,3.85,0,0,0-.53,2V87.06a3.87,3.87,0,0,1-3.88,3.88H323.49a3.87,3.87,0,0,1-3.88-3.88V57a3.86,3.86,0,0,0-.53-1.95Z"/><path class="cls-2" d="M465.9,90.93H455.47a3.87,3.87,0,0,1-3.88-3.88v-52A3.88,3.88,0,0,0,445,32.34l-4.45,4.43a3.88,3.88,0,0,0,0,5.48L442,43.74a3.89,3.89,0,0,1,1.14,2.74V61.2A3.88,3.88,0,0,1,436.52,64l-11.6-11.6L412.07,39.5l-7.19-7.17a3.88,3.88,0,0,0-6.63,2.74V87a3.87,3.87,0,0,1-3.88,3.88H384A3.87,3.87,0,0,1,380.07,87V3.88A3.87,3.87,0,0,1,384,0h12.71a3.87,3.87,0,0,1,2.74,1.14l22.79,22.77a3.86,3.86,0,0,0,5.48,0L450.44,1.14A3.89,3.89,0,0,1,453.18,0H465.9a3.87,3.87,0,0,1,3.88,3.88V87a3.87,3.87,0,0,1-3.88,3.89"/><path class="cls-2" d="M490.39,87.05V3.89A3.87,3.87,0,0,1,494.27,0H552a3.87,3.87,0,0,1,3.88,3.88v8.3A3.87,3.87,0,0,1,552,16.07H512.61A3.87,3.87,0,0,0,508.73,20v13.6a3.87,3.87,0,0,0,3.88,3.88h31.94a3.87,3.87,0,0,1,3.88,3.88V48.4a3.87,3.87,0,0,1-3.88,3.88H512.61a3.87,3.87,0,0,0-3.88,3.88V71a3.87,3.87,0,0,0,3.88,3.88H552a3.87,3.87,0,0,1,3.88,3.88V87A3.87,3.87,0,0,1,552,90.92h-57.7a3.86,3.86,0,0,1-3.88-3.87"/><path class="cls-2" d="M239,115.43v83.16a3.87,3.87,0,0,1-3.88,3.88H224.68a3.87,3.87,0,0,1-3.88-3.88v-52a3.88,3.88,0,0,0-6.62-2.74l-4.45,4.43a3.89,3.89,0,0,0,0,5.49l1.49,1.49a3.89,3.89,0,0,1,1.14,2.74v14.72a3.89,3.89,0,0,1-6.63,2.76l-11.6-11.6-12.86-12.86-7.19-7.17a3.88,3.88,0,0,0-6.62,2.74v52a3.87,3.87,0,0,1-3.88,3.88H153.15a3.87,3.87,0,0,1-3.88-3.88V115.43a3.87,3.87,0,0,1,3.88-3.88h12.7a3.85,3.85,0,0,1,2.74,1.14l22.78,22.77a3.87,3.87,0,0,0,5.49,0l22.77-22.77a3.89,3.89,0,0,1,2.74-1.14h12.72a3.88,3.88,0,0,1,3.9,3.88"/><path class="cls-2" d="M300.21,109.56c-27.43,0-46.07,21.22-46.07,47.44s18.64,47.59,46.07,47.59c27.74,0,46.23-21.37,46.23-47.59S328,109.56,300.21,109.56m0,77.3c-15.62,0-27-12.57-27-29.86s11.35-29.86,27-29.86c15.91,0,27.28,12.57,27.28,29.86s-11.37,29.86-27.28,29.86"/><path class="cls-2" d="M442.21,116.9v80.21a5.36,5.36,0,0,1-5.37,5.37h-6.18a5.36,5.36,0,0,1-4.15-2L389.6,155.23a5.37,5.37,0,0,0-9.53,3.39v38.5a5.36,5.36,0,0,1-5.37,5.37h-7.58a5.36,5.36,0,0,1-5.37-5.37V116.91a5.36,5.36,0,0,1,5.37-5.37h6.2a5.32,5.32,0,0,1,4.13,1.95l36.91,44.86a5.38,5.38,0,0,0,9.52-3.42v-38a5.36,5.36,0,0,1,5.37-5.37h7.6a5.35,5.35,0,0,1,5.36,5.36"/><path class="cls-2" d="M512.17,115.41v56.13c-.15,18.19-10.31,33.05-33.64,33.05-10.64,0-17.56-3.54-21.1-6a3.88,3.88,0,0,1-1.12-5.19l5-8.39a3.89,3.89,0,0,1,5.22-1.4,23.79,23.79,0,0,0,11.38,2.94c10.76,0,15.76-5.45,15.91-18.64V115.42a3.89,3.89,0,0,1,3.9-3.88h10.56a3.86,3.86,0,0,1,3.88,3.87"/><path class="cls-2" d="M608.76,197.15l-33-83.16a3.88,3.88,0,0,0-3.62-2.46h-14a3.91,3.91,0,0,0-3.62,2.46l-33,83.16a3.88,3.88,0,0,0,3.6,5.32h11.14a3.89,3.89,0,0,0,3.65-2.54l4.63-12.51a3.89,3.89,0,0,1,3.65-2.54h33.82a3.89,3.89,0,0,1,3.65,2.54l4.64,12.51a3.89,3.89,0,0,0,3.65,2.54h11.12a3.88,3.88,0,0,0,3.61-5.32m-35-27.11H556.58a3.9,3.9,0,0,1-3.64-5.24l8.54-23.13a3.89,3.89,0,0,1,7.29,0l8.63,23.13a3.9,3.9,0,0,1-3.65,5.26"/><path class="cls-2" d="M696.42,199.27,676.33,170.8v-1.22c11.07-4.54,18-14.24,18-27.58,0-18.34-13.8-30.47-34.86-30.47H626.08a5.36,5.36,0,0,0-5.37,5.37v80.21a5.36,5.36,0,0,0,5.37,5.37h7.6a5.36,5.36,0,0,0,5.37-5.37V177.84a5.36,5.36,0,0,1,5.37-5.37h9.07a5.4,5.4,0,0,1,4.45,2.35l17.25,25.31a5.38,5.38,0,0,0,4.45,2.35H697.4v-.12a5.42,5.42,0,0,0-1-3.09m-37.51-42.56H644.42a5.36,5.36,0,0,1-5.37-5.37V133a5.36,5.36,0,0,1,5.37-5.37h14c10,0,17,4.69,17,14.54,0,9.7-7,14.56-16.51,14.56"/><path class="cls-2" d="M745,111.53H716.86a5.36,5.36,0,0,0-5.37,5.37v80.2a5.36,5.36,0,0,0,5.37,5.37H745c28.8,0,47.29-18.8,47.29-45.47S773.78,111.53,745,111.53m-1.2,74.87H735.2a5.36,5.36,0,0,1-5.37-5.37V133a5.36,5.36,0,0,1,5.37-5.37h8.58c16.51,0,29.55,10.29,29.55,29.4,0,18.48-13.05,29.39-29.55,29.39"/><path class="cls-2" d="M826.06,116.9v80.21a5.36,5.36,0,0,1-5.37,5.37h-7.6a5.36,5.36,0,0,1-5.37-5.37V116.9a5.36,5.36,0,0,1,5.37-5.37h7.6a5.36,5.36,0,0,1,5.37,5.37"/><path class="cls-2" d="M936.54,115.43v83.16a3.87,3.87,0,0,1-3.88,3.88H922.24a3.87,3.87,0,0,1-3.88-3.88v-52a3.88,3.88,0,0,0-6.62-2.74l-4.45,4.43a3.89,3.89,0,0,0,0,5.49l1.49,1.49a3.89,3.89,0,0,1,1.14,2.74v14.72a3.88,3.88,0,0,1-6.62,2.76l-11.6-11.6-12.86-12.86-7.19-7.17a3.88,3.88,0,0,0-6.63,2.74v52a3.87,3.87,0,0,1-3.88,3.88H850.72a3.87,3.87,0,0,1-3.88-3.88V115.43a3.87,3.87,0,0,1,3.88-3.88h12.71a3.87,3.87,0,0,1,2.74,1.14L889,135.46a3.87,3.87,0,0,0,5.49,0l22.77-22.77a3.89,3.89,0,0,1,2.74-1.14h12.72a3.88,3.88,0,0,1,3.87,3.88"/><path class="cls-1" d="M336.9,305.13l-31.8-80.19a3.75,3.75,0,0,0-3.49-2.36H288.15a3.75,3.75,0,0,0-3.49,2.36l-31.8,80.19a3.74,3.74,0,0,0,3.47,5.13h10.74a3.73,3.73,0,0,0,3.52-2.44l4.46-12.08a3.73,3.73,0,0,1,3.52-2.44h32.61a3.73,3.73,0,0,1,3.52,2.44l4.48,12.08a3.75,3.75,0,0,0,3.52,2.44h10.72a3.74,3.74,0,0,0,3.48-5.13M303.14,279H286.59a3.75,3.75,0,0,1-3.51-5.05l8.24-22.29a3.73,3.73,0,0,1,7,0l8.33,22.3a3.75,3.75,0,0,1-3.52,5.05"/><path class="cls-1" d="M486.43,305.13l-31.8-80.19a3.75,3.75,0,0,0-3.49-2.36H437.68a3.75,3.75,0,0,0-3.49,2.36l-31.8,80.19a3.74,3.74,0,0,0,3.47,5.13H416.6a3.73,3.73,0,0,0,3.52-2.44l4.46-12.08a3.73,3.73,0,0,1,3.52-2.44h32.61a3.73,3.73,0,0,1,3.52,2.44l4.48,12.08a3.75,3.75,0,0,0,3.52,2.44H483a3.74,3.74,0,0,0,3.48-5.13M452.67,279H436.12a3.75,3.75,0,0,1-3.51-5.05l8.24-22.29a3.73,3.73,0,0,1,7,0l8.33,22.3a3.75,3.75,0,0,1-3.52,5.05"/><path class="cls-1" d="M678,305.13l-31.8-80.19a3.75,3.75,0,0,0-3.49-2.36H629.2a3.75,3.75,0,0,0-3.49,2.36l-31.8,80.19a3.74,3.74,0,0,0,3.47,5.13h10.74a3.73,3.73,0,0,0,3.52-2.44l4.46-12.08a3.73,3.73,0,0,1,3.52-2.44h32.61a3.73,3.73,0,0,1,3.52,2.44l4.48,12.08a3.75,3.75,0,0,0,3.52,2.44h10.72a3.74,3.74,0,0,0,3.48-5.13M644.19,279H627.64a3.75,3.75,0,0,1-3.51-5.05l8.24-22.29a3.73,3.73,0,0,1,7,0l8.33,22.3a3.76,3.76,0,0,1-3.52,5.05"/><path class="cls-1" d="M235.77,226.33v80.18a3.73,3.73,0,0,1-3.74,3.74H222a3.74,3.74,0,0,1-3.75-3.74V256.4a3.74,3.74,0,0,0-6.39-2.64L207.55,258a3.74,3.74,0,0,0,0,5.29l1.43,1.43a3.76,3.76,0,0,1,1.1,2.64v14.2a3.74,3.74,0,0,1-6.39,2.66l-11.18-11.18-12.4-12.4-6.93-6.91a3.74,3.74,0,0,0-6.39,2.64v50.11a3.73,3.73,0,0,1-3.74,3.74H153a3.74,3.74,0,0,1-3.75-3.74V226.33a3.74,3.74,0,0,1,3.75-3.74h12.25a3.78,3.78,0,0,1,2.65,1.1l22,22a3.72,3.72,0,0,0,5.29,0l22-22a3.76,3.76,0,0,1,2.64-1.1H232a3.74,3.74,0,0,1,3.75,3.74"/><path class="cls-1" d="M892,220.6c-26.45,0-44.42,20.46-44.42,45.74s18,45.88,44.42,45.88c26.75,0,44.58-20.6,44.58-45.88S918.71,220.6,892,220.6m0,74.53c-15.06,0-26-12.12-26-28.79s10.95-28.79,26-28.79c15.34,0,26.3,12.12,26.3,28.79s-11,28.79-26.3,28.79"/><path class="cls-1" d="M577.05,307.18l-19.37-27.45v-1.18c10.67-4.38,17.4-13.73,17.4-26.59,0-17.68-13.3-29.38-33.62-29.38H509.23a5.17,5.17,0,0,0-5.18,5.18v77.33a5.17,5.17,0,0,0,5.18,5.18h7.33a5.17,5.17,0,0,0,5.18-5.18V286.51a5.17,5.17,0,0,1,5.18-5.18h8.75a5.19,5.19,0,0,1,4.29,2.26L556.59,308a5.18,5.18,0,0,0,4.29,2.26H578v-.11a5.36,5.36,0,0,0-1-3m-36.16-41h-14a5.17,5.17,0,0,1-5.18-5.18v-17.7a5.17,5.17,0,0,1,5.18-5.18h13.53c9.64,0,16.36,4.53,16.36,14s-6.73,14-15.92,14"/><path class="cls-1" d="M405.23,225.73v10.58a3.15,3.15,0,0,1-3.15,3.15H382.94a3.15,3.15,0,0,0-3.15,3.15v64.51a3.15,3.15,0,0,1-3.15,3.15H364.41a3.15,3.15,0,0,1-3.15-3.15V242.61a3.15,3.15,0,0,0-3.15-3.15H339a3.15,3.15,0,0,1-3.15-3.15V225.73a3.15,3.15,0,0,1,3.15-3.15h63.1A3.16,3.16,0,0,1,405.23,225.73Z"/><path class="cls-1" d="M697.66,292.9l34.11-47.78a3.59,3.59,0,0,0-2.93-5.68h-24a3.59,3.59,0,0,1-3.59-3.59v-9.66a3.59,3.59,0,0,1,3.59-3.59h49.55a3.59,3.59,0,0,1,3.59,3.64l-.12,9.29a3.65,3.65,0,0,1-.65,2l-35.31,50.16a3.59,3.59,0,0,0,2.93,5.66l31.57.05A3.59,3.59,0,0,1,760,297v9.66a3.58,3.58,0,0,1-3.6,3.59l-55.82-.11a3.59,3.59,0,0,1-3.59-3.59V295A3.49,3.49,0,0,1,697.66,292.9Z"/><path class="cls-1" d="M776.88,292.9,811,245.12a3.59,3.59,0,0,0-2.93-5.68h-24a3.59,3.59,0,0,1-3.59-3.59v-9.66a3.59,3.59,0,0,1,3.59-3.59h49.55a3.59,3.59,0,0,1,3.59,3.64l-.12,9.29a3.65,3.65,0,0,1-.65,2l-35.31,50.16a3.59,3.59,0,0,0,2.93,5.66l31.57.05a3.59,3.59,0,0,1,3.59,3.59v9.66a3.58,3.58,0,0,1-3.6,3.59l-55.82-.11a3.59,3.59,0,0,1-3.59-3.59V295A3.56,3.56,0,0,1,776.88,292.9Z"/></g></g></svg>